<svg width="108" height="75" viewBox="0 0 108 75" fill="none" xmlns="http://www.w3.org/2000/svg">
<path d="M52.9922 37.85C52.9922 44.15 52.3089 49.6333 50.9422 54.3C49.6089 58.9333 47.7422 62.7667 45.3422 65.8C42.9755 68.8333 40.1589 71.1 36.8922 72.6C33.6589 74.0667 30.1589 74.8 26.3922 74.8C22.6255 74.8 19.1255 74.0667 15.8922 72.6C12.6922 71.1 9.90885 68.8333 7.54219 65.8C5.17552 62.7667 3.32552 58.9333 1.99219 54.3C0.658854 49.6333 -0.00781246 44.15 -0.00781246 37.85C-0.00781246 31.5167 0.658854 26.0333 1.99219 21.4C3.32552 16.7667 5.17552 12.9333 7.54219 9.9C9.90885 6.86666 12.6922 4.61666 15.8922 3.15C19.1255 1.65 22.6255 0.899999 26.3922 0.899999C30.1589 0.899999 33.6589 1.65 36.8922 3.15C40.1589 4.61666 42.9755 6.86666 45.3422 9.9C47.7422 12.9333 49.6089 16.7667 50.9422 21.4C52.3089 26.0333 52.9922 31.5167 52.9922 37.85ZM40.2422 37.85C40.2422 32.6167 39.8589 28.2833 39.0922 24.85C38.3255 21.4167 37.2922 18.6833 35.9922 16.65C34.7255 14.6167 33.2589 13.2 31.5922 12.4C29.9255 11.5667 28.1922 11.15 26.3922 11.15C24.6255 11.15 22.9089 11.5667 21.2422 12.4C19.6089 13.2 18.1589 14.6167 16.8922 16.65C15.6255 18.6833 14.6089 21.4167 13.8422 24.85C13.1089 28.2833 12.7422 32.6167 12.7422 37.85C12.7422 43.0833 13.1089 47.4167 13.8422 50.85C14.6089 54.2833 15.6255 57.0167 16.8922 59.05C18.1589 61.0833 19.6089 62.5167 21.2422 63.35C22.9089 64.15 24.6255 64.55 26.3922 64.55C28.1922 64.55 29.9255 64.15 31.5922 63.35C33.2589 62.5167 34.7255 61.0833 35.9922 59.05C37.2922 57.0167 38.3255 54.2833 39.0922 50.85C39.8589 47.4167 40.2422 43.0833 40.2422 37.85ZM107.25 64.75V74H67.25V64.75H81.9V22.6C81.9 20.9333 81.95 19.2167 82.05 17.45L71.65 26.15C71.05 26.6167 70.45 26.9167 69.85 27.05C69.2833 27.15 68.7333 27.15 68.2 27.05C67.7 26.95 67.25 26.7833 66.85 26.55C66.45 26.2833 66.15 26 65.95 25.7L62.05 20.35L84.1 1.6H94.25V64.75H107.25Z" fill="#101010" fill-opacity="0.08"/>
</svg>
