<svg width="109" height="75" viewBox="0 0 109 75" fill="none" xmlns="http://www.w3.org/2000/svg">
<path d="M52.9922 37.85C52.9922 44.15 52.3089 49.6333 50.9422 54.3C49.6089 58.9333 47.7422 62.7667 45.3422 65.8C42.9755 68.8333 40.1589 71.1 36.8922 72.6C33.6589 74.0667 30.1589 74.8 26.3922 74.8C22.6255 74.8 19.1255 74.0667 15.8922 72.6C12.6922 71.1 9.90885 68.8333 7.54219 65.8C5.17552 62.7667 3.32552 58.9333 1.99219 54.3C0.658854 49.6333 -0.00781246 44.15 -0.00781246 37.85C-0.00781246 31.5167 0.658854 26.0333 1.99219 21.4C3.32552 16.7667 5.17552 12.9333 7.54219 9.9C9.90885 6.86666 12.6922 4.61666 15.8922 3.15C19.1255 1.65 22.6255 0.899999 26.3922 0.899999C30.1589 0.899999 33.6589 1.65 36.8922 3.15C40.1589 4.61666 42.9755 6.86666 45.3422 9.9C47.7422 12.9333 49.6089 16.7667 50.9422 21.4C52.3089 26.0333 52.9922 31.5167 52.9922 37.85ZM40.2422 37.85C40.2422 32.6167 39.8589 28.2833 39.0922 24.85C38.3255 21.4167 37.2922 18.6833 35.9922 16.65C34.7255 14.6167 33.2589 13.2 31.5922 12.4C29.9255 11.5667 28.1922 11.15 26.3922 11.15C24.6255 11.15 22.9089 11.5667 21.2422 12.4C19.6089 13.2 18.1589 14.6167 16.8922 16.65C15.6255 18.6833 14.6089 21.4167 13.8422 24.85C13.1089 28.2833 12.7422 32.6167 12.7422 37.85C12.7422 43.0833 13.1089 47.4167 13.8422 50.85C14.6089 54.2833 15.6255 57.0167 16.8922 59.05C18.1589 61.0833 19.6089 62.5167 21.2422 63.35C22.9089 64.15 24.6255 64.55 26.3922 64.55C28.1922 64.55 29.9255 64.15 31.5922 63.35C33.2589 62.5167 34.7255 61.0833 35.9922 59.05C37.2922 57.0167 38.3255 54.2833 39.0922 50.85C39.8589 47.4167 40.2422 43.0833 40.2422 37.85ZM104.55 62.5C105.883 62.5 106.933 62.8833 107.7 63.65C108.5 64.3833 108.9 65.3667 108.9 66.6V74H59.3V69.9C59.3 69.0667 59.4667 68.2 59.8 67.3C60.1667 66.3667 60.7333 65.5333 61.5 64.8L83.45 42.8C85.2833 40.9333 86.9167 39.15 88.35 37.45C89.8167 35.75 91.0333 34.0667 92 32.4C92.9667 30.7333 93.7 29.05 94.2 27.35C94.7333 25.6167 95 23.8 95 21.9C95 20.1667 94.75 18.65 94.25 17.35C93.75 16.0167 93.0333 14.9 92.1 14C91.2 13.1 90.1 12.4333 88.8 12C87.5333 11.5333 86.1 11.3 84.5 11.3C83.0333 11.3 81.6667 11.5167 80.4 11.95C79.1667 12.35 78.0667 12.9333 77.1 13.7C76.1333 14.4333 75.3167 15.3 74.65 16.3C73.9833 17.3 73.4833 18.4 73.15 19.6C72.5833 21.1333 71.85 22.15 70.95 22.65C70.05 23.15 68.75 23.2667 67.05 23L60.55 21.85C61.05 18.3833 62.0167 15.35 63.45 12.75C64.8833 10.1167 66.6667 7.93333 68.8 6.2C70.9667 4.43333 73.4333 3.11666 76.2 2.25C79 1.35 82 0.899999 85.2 0.899999C88.5333 0.899999 91.5833 1.4 94.35 2.4C97.1167 3.36666 99.4833 4.74999 101.45 6.55C103.417 8.35 104.95 10.5167 106.05 13.05C107.15 15.5833 107.7 18.4 107.7 21.5C107.7 24.1667 107.3 26.6333 106.5 28.9C105.733 31.1667 104.683 33.3333 103.35 35.4C102.05 37.4667 100.517 39.4667 98.75 41.4C96.9833 43.3333 95.1333 45.3 93.2 47.3L76.9 63.95C78.4667 63.4833 80.0167 63.1333 81.55 62.9C83.1167 62.6333 84.6 62.5 86 62.5H104.55Z" fill="#101010" fill-opacity="0.08"/>
</svg>
