<svg width="109" height="75" viewBox="0 0 109 75" fill="none" xmlns="http://www.w3.org/2000/svg">
<path d="M52.9922 37.85C52.9922 44.15 52.3089 49.6333 50.9422 54.3C49.6089 58.9333 47.7422 62.7667 45.3422 65.8C42.9755 68.8333 40.1589 71.1 36.8922 72.6C33.6589 74.0667 30.1589 74.8 26.3922 74.8C22.6255 74.8 19.1255 74.0667 15.8922 72.6C12.6922 71.1 9.90885 68.8333 7.54219 65.8C5.17552 62.7667 3.32552 58.9333 1.99219 54.3C0.658854 49.6333 -0.00781246 44.15 -0.00781246 37.85C-0.00781246 31.5167 0.658854 26.0333 1.99219 21.4C3.32552 16.7667 5.17552 12.9333 7.54219 9.9C9.90885 6.86666 12.6922 4.61666 15.8922 3.15C19.1255 1.65 22.6255 0.899999 26.3922 0.899999C30.1589 0.899999 33.6589 1.65 36.8922 3.15C40.1589 4.61666 42.9755 6.86666 45.3422 9.9C47.7422 12.9333 49.6089 16.7667 50.9422 21.4C52.3089 26.0333 52.9922 31.5167 52.9922 37.85ZM40.2422 37.85C40.2422 32.6167 39.8589 28.2833 39.0922 24.85C38.3255 21.4167 37.2922 18.6833 35.9922 16.65C34.7255 14.6167 33.2589 13.2 31.5922 12.4C29.9255 11.5667 28.1922 11.15 26.3922 11.15C24.6255 11.15 22.9089 11.5667 21.2422 12.4C19.6089 13.2 18.1589 14.6167 16.8922 16.65C15.6255 18.6833 14.6089 21.4167 13.8422 24.85C13.1089 28.2833 12.7422 32.6167 12.7422 37.85C12.7422 43.0833 13.1089 47.4167 13.8422 50.85C14.6089 54.2833 15.6255 57.0167 16.8922 59.05C18.1589 61.0833 19.6089 62.5167 21.2422 63.35C22.9089 64.15 24.6255 64.55 26.3922 64.55C28.1922 64.55 29.9255 64.15 31.5922 63.35C33.2589 62.5167 34.7255 61.0833 35.9922 59.05C37.2922 57.0167 38.3255 54.2833 39.0922 50.85C39.8589 47.4167 40.2422 43.0833 40.2422 37.85ZM60.9 21.85C61.4 18.3833 62.3667 15.35 63.8 12.75C65.2333 10.1167 67.0167 7.93333 69.15 6.2C71.3167 4.43333 73.7833 3.11666 76.55 2.25C79.35 1.35 82.35 0.899999 85.55 0.899999C88.8833 0.899999 91.8833 1.38333 94.55 2.35C97.25 3.28333 99.55 4.6 101.45 6.3C103.35 7.96666 104.8 9.93333 105.8 12.2C106.833 14.4667 107.35 16.9167 107.35 19.55C107.35 21.85 107.083 23.8833 106.55 25.65C106.05 27.3833 105.317 28.9 104.35 30.2C103.383 31.5 102.183 32.6 100.75 33.5C99.3167 34.4 97.7 35.15 95.9 35.75C100.233 37.1167 103.467 39.2 105.6 42C107.733 44.8 108.8 48.3167 108.8 52.55C108.8 56.15 108.133 59.3333 106.8 62.1C105.467 64.8667 103.667 67.2 101.4 69.1C99.1333 70.9667 96.5 72.3833 93.5 73.35C90.5333 74.3167 87.3833 74.8 84.05 74.8C80.4167 74.8 77.25 74.3833 74.55 73.55C71.85 72.7167 69.5 71.4833 67.5 69.85C65.5 68.2167 63.8 66.2167 62.4 63.85C61 61.4833 59.8 58.75 58.8 55.65L64.25 53.4C65.6833 52.8 67.0167 52.65 68.25 52.95C69.5167 53.2167 70.4333 53.8833 71 54.95C71.6 56.1167 72.25 57.2667 72.95 58.4C73.6833 59.5333 74.55 60.55 75.55 61.45C76.55 62.3167 77.7167 63.0333 79.05 63.6C80.4167 64.1333 82.0333 64.4 83.9 64.4C86 64.4 87.8333 64.0667 89.4 63.4C90.9667 62.7 92.2667 61.8 93.3 60.7C94.3667 59.6 95.15 58.3833 95.65 57.05C96.1833 55.6833 96.45 54.3167 96.45 52.95C96.45 51.2167 96.2667 49.65 95.9 48.25C95.5333 46.8167 94.7667 45.6 93.6 44.6C92.4333 43.6 90.75 42.8167 88.55 42.25C86.3833 41.6833 83.4667 41.4 79.8 41.4V32.6C82.8333 32.5667 85.35 32.2833 87.35 31.75C89.35 31.2167 90.9333 30.4833 92.1 29.55C93.3 28.5833 94.1333 27.4333 94.6 26.1C95.0667 24.7667 95.3 23.3 95.3 21.7C95.3 18.3 94.35 15.7167 92.45 13.95C90.55 12.1833 88.0167 11.3 84.85 11.3C83.3833 11.3 82.0333 11.5167 80.8 11.95C79.5667 12.35 78.45 12.9333 77.45 13.7C76.4833 14.4333 75.6667 15.3 75 16.3C74.3333 17.3 73.8333 18.4 73.5 19.6C72.9333 21.1333 72.1833 22.15 71.25 22.65C70.35 23.15 69.0667 23.2667 67.4 23L60.9 21.85Z" fill="#101010" fill-opacity="0.08"/>
</svg>
